<svg xmlns="http://www.w3.org/2000/svg" xmlns:xlink="http://www.w3.org/1999/xlink" preserveAspectRatio="xMidYMid" width="800" height="182" viewBox="0 0 800 182">
  <defs>
    <style>
      .cls-1 {
        fill: #d9d9d9;
        fill-rule: evenodd;
      }
    </style>
  </defs>
  <path d="M715.788,96.389 C715.788,104.085 715.936,105.121 717.120,106.897 C718.452,109.264 721.115,110.300 726.147,110.300 C731.475,110.300 734.435,109.264 735.619,106.749 C736.507,105.121 736.655,104.529 736.655,97.277 L760.630,97.277 C760.334,110.596 759.298,114.888 755.302,120.068 C749.975,126.728 741.983,128.948 723.927,128.948 C707.204,128.948 700.396,127.468 695.216,122.436 C691.516,118.736 690.037,114.888 689.741,106.897 C689.593,105.713 689.593,102.161 689.593,96.389 L689.593,75.966 L675.829,75.966 L675.829,57.170 L689.593,57.170 L689.593,41.039 L715.788,41.039 L715.788,57.170 L757.226,57.170 L757.226,75.966 L715.788,75.966 L715.788,96.389 ZM601.978,97.869 C601.978,104.973 602.718,107.341 605.234,109.264 C608.046,111.336 613.521,112.224 622.993,112.224 C639.717,112.224 642.824,111.040 643.860,104.825 L669.908,104.825 C667.984,124.212 658.364,128.948 620.921,128.948 C600.646,128.948 591.026,127.172 584.662,122.436 C577.855,117.256 575.783,110.300 575.783,92.393 C575.783,73.598 577.855,66.642 585.254,61.462 C592.062,56.726 600.794,55.246 623.585,55.246 C647.264,55.246 655.552,56.726 661.916,61.906 C668.132,67.086 670.500,74.930 670.500,90.765 C670.500,91.653 670.500,94.909 670.352,97.869 L601.978,97.869 ZM642.084,75.078 C639.717,72.562 634.389,71.526 624.029,71.526 C606.418,71.526 602.274,73.746 601.978,83.513 L644.156,83.513 C644.008,78.038 643.712,76.706 642.084,75.078 ZM540.113,95.353 C540.113,84.105 539.669,81.589 536.857,78.926 C534.045,76.114 529.014,75.078 519.246,75.078 C509.626,75.078 504.446,76.410 501.339,79.665 C498.083,83.069 497.491,86.325 497.491,99.201 L497.491,127.172 L471.296,127.172 L471.296,57.170 L496.011,57.170 L496.011,67.826 L497.343,67.826 C502.078,58.798 510.070,55.394 527.090,55.394 C543.813,55.394 552.397,57.762 558.613,64.126 C564.976,70.786 566.308,76.114 566.308,95.353 L566.308,127.172 L540.113,127.172 L540.113,95.353 ZM425.416,100.977 L456.939,100.977 L456.939,127.172 L425.416,127.172 L425.416,100.977 ZM389.619,53.733 C388.179,52.581 387.315,52.437 378.387,52.149 C372.195,51.861 366.723,51.717 362.115,51.717 C348.004,51.717 340.228,52.437 337.060,53.877 C334.036,55.461 333.028,58.917 333.028,68.133 C333.028,69.285 333.028,71.157 333.172,73.461 C340.516,66.405 346.852,64.965 372.051,64.965 C409.778,64.965 417.842,70.437 417.842,96.356 C417.842,113.636 414.242,121.412 404.307,125.156 C398.115,127.604 386.595,128.324 356.932,128.324 C329.284,128.324 319.348,126.596 312.868,120.692 C306.388,114.644 305.237,108.020 305.237,76.053 C305.237,60.069 305.525,55.173 306.964,48.837 C310.420,33.574 321.508,29.974 364.851,29.974 C397.539,29.974 408.339,31.702 413.954,37.750 C417.410,41.350 418.418,45.813 418.562,58.053 L391.203,58.053 C391.059,55.461 390.627,54.453 389.619,53.733 ZM339.220,105.860 C341.380,106.436 347.716,106.724 357.363,106.724 C366.003,106.724 379.395,106.292 382.419,106.004 C387.459,105.572 389.475,102.980 389.475,96.788 C389.475,86.997 388.035,86.565 358.083,86.565 C344.260,86.565 340.948,86.853 338.212,88.005 C335.188,89.301 333.604,92.325 333.604,96.644 C333.604,102.260 335.188,104.996 339.220,105.860 ZM274.131,126.596 C267.075,127.748 252.963,128.324 235.540,128.324 C217.972,128.324 203.860,127.748 196.804,126.596 C185.429,125.012 178.229,118.388 176.357,108.020 C175.205,102.260 175.205,100.676 175.205,77.781 C175.205,58.341 175.349,55.749 176.357,50.277 C178.229,39.910 185.429,33.286 196.804,31.702 C204.004,30.550 217.972,29.974 235.540,29.974 C252.963,29.974 266.931,30.550 274.131,31.702 C285.507,33.286 292.707,39.910 294.579,50.277 C295.587,55.893 295.731,58.053 295.731,79.077 C295.731,100.244 295.587,102.404 294.579,108.020 C292.707,118.388 285.507,125.012 274.131,126.596 ZM233.668,54.885 C205.732,54.885 204.436,55.893 204.436,78.645 C204.436,102.548 205.444,103.412 233.524,103.412 C266.067,103.412 266.499,102.980 266.499,79.077 C266.499,55.317 265.923,54.885 233.668,54.885 ZM134.738,56.181 L127.106,56.181 L98.739,80.085 L82.611,61.221 L117.746,31.126 L163.969,31.126 L163.969,127.172 L134.738,127.172 L134.738,56.181 ZM44.021,153.091 C40.709,153.091 39.269,153.091 36.101,152.803 L36.101,135.380 C37.829,135.524 38.693,135.524 39.557,135.524 C44.165,135.524 46.180,133.940 46.900,129.908 C47.188,128.036 47.332,124.868 47.332,119.396 L47.332,59.061 L72.820,59.061 L72.820,122.996 L72.820,128.180 C72.820,147.763 66.628,153.091 44.021,153.091 ZM47.332,31.126 L72.820,31.126 L72.820,50.277 L47.332,50.277 L47.332,31.126 Z" class="cls-1"/>
</svg>
